<svg xmlns="http://www.w3.org/2000/svg" viewBox="0 0 18 14" shape-rendering="crispEdges">
  <g fill="#22C55E">
    <!-- Shell -->
    <rect x="4" y="0" width="6" height="1"/>
    <rect x="3" y="1" width="8" height="1"/>
    <rect x="2" y="2" width="10" height="1"/>
    <rect x="2" y="3" width="10" height="1"/>
    <rect x="2" y="4" width="10" height="1"/>
    <rect x="2" y="5" width="10" height="1"/>
    <rect x="3" y="6" width="8" height="1"/>
    <!-- Scutes -->
    <rect x="5" y="2" width="1" height="1" fill="white"/>
    <rect x="8" y="2" width="1" height="1" fill="white"/>
    <rect x="4" y="4" width="1" height="1" fill="white"/>
    <rect x="7" y="4" width="1" height="1" fill="white"/>
    <rect x="10" y="4" width="1" height="1" fill="white"/>
    <!-- Body -->
    <rect x="3" y="7" width="9" height="1"/>
    <!-- Neck + head -->
    <rect x="12" y="3" width="1" height="1"/>
    <rect x="13" y="1" width="3" height="1"/>
    <rect x="13" y="2" width="4" height="1"/>
    <rect x="13" y="3" width="4" height="1"/>
    <rect x="13" y="4" width="3" height="1"/>
    <!-- Eye -->
    <rect x="15" y="2" width="1" height="1" fill="white"/>
    <!-- Stubs -->
    <rect x="4" y="8" width="2" height="3"/>
    <rect x="10" y="8" width="2" height="3"/>
    <!-- Tail -->
    <rect x="0" y="4" width="2" height="1"/>
  </g>
</svg>
