<svg xmlns="http://www.w3.org/2000/svg" viewBox="0 0 16 14" shape-rendering="crispEdges">
  <!-- Tiny tortoise favicon, single color -->
  <g fill="#22C55E">
    <rect x="4" y="0" width="6" height="1"/>
    <rect x="3" y="1" width="8" height="1"/>
    <rect x="2" y="2" width="10" height="1"/>
    <rect x="2" y="3" width="10" height="1"/>
    <rect x="2" y="4" width="10" height="1"/>
    <rect x="2" y="5" width="10" height="1"/>
    <rect x="3" y="6" width="8" height="1"/>
    <rect x="3" y="7" width="10" height="1"/>
    <!-- Head -->
    <rect x="12" y="3" width="3" height="1"/>
    <rect x="12" y="4" width="4" height="1"/>
    <rect x="12" y="5" width="3" height="1"/>
    <!-- Eye -->
    <rect x="14" y="4" width="1" height="1" fill="white"/>
    <!-- Stub legs -->
    <rect x="4" y="8" width="2" height="3"/>
    <rect x="10" y="8" width="2" height="3"/>
    <!-- Tail -->
    <rect x="0" y="4" width="2" height="1"/>
  </g>
</svg>
