<svg xmlns="http://www.w3.org/2000/svg" viewBox="0 0 40 26" shape-rendering="crispEdges">
  <!-- 8-bit tortoise, #22C55E + white, side view facing right -->
  <g fill="#22C55E">
    <!-- Shell dome -->
    <rect x="10" y="0" width="12" height="2"/>
    <rect x="8" y="2" width="16" height="2"/>
    <rect x="6" y="4" width="20" height="2"/>
    <rect x="6" y="6" width="20" height="2"/>
    <rect x="6" y="8" width="20" height="2"/>
    <rect x="6" y="10" width="20" height="2"/>
    <rect x="8" y="12" width="16" height="2"/>
    <!-- Shell scute pattern (white dots) -->
    <rect x="12" y="4" width="2" height="2" fill="white"/>
    <rect x="18" y="4" width="2" height="2" fill="white"/>
    <rect x="10" y="8" width="2" height="2" fill="white"/>
    <rect x="16" y="8" width="2" height="2" fill="white"/>
    <rect x="22" y="8" width="2" height="2" fill="white"/>
    <rect x="14" y="12" width="2" height="2" fill="white"/>
    <rect x="20" y="12" width="2" height="2" fill="white"/>
    <!-- Body underside -->
    <rect x="8" y="14" width="18" height="2"/>
    <!-- Neck (narrow, extends forward from shell top area) -->
    <rect x="26" y="6" width="2" height="2"/>
    <rect x="28" y="4" width="2" height="2"/>
    <!-- Head (sits on top of neck, wider) -->
    <rect x="30" y="2" width="6" height="2"/>
    <rect x="30" y="4" width="8" height="2"/>
    <rect x="30" y="6" width="8" height="2"/>
    <rect x="30" y="8" width="6" height="2"/>
    <!-- Eye -->
    <rect x="34" y="4" width="2" height="2" fill="white"/>
    <!-- Front leg stub -->
    <rect x="22" y="16" width="4" height="6"/>
    <!-- Back leg stub -->
    <rect x="10" y="16" width="4" height="6"/>
    <!-- Tail -->
    <rect x="4" y="10" width="4" height="2"/>
    <rect x="2" y="8" width="4" height="2"/>
  </g>
</svg>
