<svg xmlns="http://www.w3.org/2000/svg" viewBox="0 0 36 26" shape-rendering="crispEdges">
  <!-- 8-bit tortoise, single color #22C55E + white eye, side view right -->
  <g fill="#22C55E">
    <!-- Shell dome (rows top to bottom) -->
    <rect x="10" y="0" width="12" height="2"/>
    <rect x="8" y="2" width="16" height="2"/>
    <rect x="6" y="4" width="20" height="2"/>
    <rect x="6" y="6" width="20" height="2"/>
    <rect x="6" y="8" width="20" height="2"/>
    <rect x="6" y="10" width="20" height="2"/>
    <rect x="8" y="12" width="16" height="2"/>
    <!-- Body connecting shell to legs -->
    <rect x="8" y="14" width="18" height="2"/>
    <!-- Head: fully enclosed block so eye is surrounded -->
    <rect x="26" y="4" width="2" height="2"/>
    <rect x="26" y="6" width="6" height="2"/>
    <rect x="26" y="8" width="8" height="2"/>
    <rect x="26" y="10" width="8" height="2"/>
    <rect x="26" y="12" width="6" height="2"/>
    <rect x="26" y="14" width="4" height="2"/>
    <!-- Eye: white cutout inside the head -->
    <rect x="30" y="8" width="2" height="2" fill="white"/>
    <!-- Front leg: simple stub -->
    <rect x="22" y="16" width="4" height="6"/>
    <!-- Back leg: simple stub -->
    <rect x="10" y="16" width="4" height="6"/>
    <!-- Tail -->
    <rect x="4" y="10" width="4" height="2"/>
    <rect x="2" y="8" width="4" height="2"/>
  </g>
</svg>
