<svg xmlns="http://www.w3.org/2000/svg" viewBox="0 0 130 26" shape-rendering="crispEdges">
  <g fill="#22C55E">
    <!-- === TORTOISE (same as logo.svg) === -->
    <rect x="10" y="0" width="12" height="2"/>
    <rect x="8" y="2" width="16" height="2"/>
    <rect x="6" y="4" width="20" height="2"/>
    <rect x="6" y="6" width="20" height="2"/>
    <rect x="6" y="8" width="20" height="2"/>
    <rect x="6" y="10" width="20" height="2"/>
    <rect x="8" y="12" width="16" height="2"/>
    <rect x="8" y="14" width="18" height="2"/>
    <rect x="26" y="4" width="2" height="2"/>
    <rect x="26" y="6" width="6" height="2"/>
    <rect x="26" y="8" width="8" height="2"/>
    <rect x="26" y="10" width="8" height="2"/>
    <rect x="26" y="12" width="6" height="2"/>
    <rect x="26" y="14" width="4" height="2"/>
    <rect x="30" y="8" width="2" height="2" fill="white"/>
    <rect x="22" y="16" width="4" height="6"/>
    <rect x="10" y="16" width="4" height="6"/>
    <rect x="4" y="10" width="4" height="2"/>
    <rect x="2" y="8" width="4" height="2"/>

    <!-- === VELOCITY pixel italic text === -->
    <!-- Each letter 5w × 7h on 1px grid, italic = top rows shift +1px right -->
    <!-- Baseline at y=6, letters 7px tall, gap of 2px between chars -->
    <!-- Starting at x=42 -->

    <!-- v (x=42) italic: top leans right -->
    <rect x="44" y="6" width="1" height="1"/>
    <rect x="48" y="6" width="1" height="1"/>
    <rect x="44" y="7" width="1" height="1"/>
    <rect x="48" y="7" width="1" height="1"/>
    <rect x="43" y="8" width="1" height="1"/>
    <rect x="47" y="8" width="1" height="1"/>
    <rect x="43" y="9" width="1" height="1"/>
    <rect x="47" y="9" width="1" height="1"/>
    <rect x="43" y="10" width="1" height="1"/>
    <rect x="47" y="10" width="1" height="1"/>
    <rect x="42" y="11" width="2" height="1"/>
    <rect x="45" y="11" width="2" height="1"/>
    <rect x="43" y="12" width="3" height="1"/>

    <!-- e (x=50) -->
    <rect x="52" y="6" width="3" height="1"/>
    <rect x="51" y="7" width="1" height="1"/>
    <rect x="54" y="7" width="1" height="1"/>
    <rect x="51" y="8" width="1" height="1"/>
    <rect x="54" y="8" width="1" height="1"/>
    <rect x="50" y="9" width="5" height="1"/>
    <rect x="50" y="10" width="1" height="1"/>
    <rect x="50" y="11" width="1" height="1"/>
    <rect x="53" y="11" width="1" height="1"/>
    <rect x="50" y="12" width="4" height="1"/>

    <!-- l (x=57) -->
    <rect x="59" y="6" width="1" height="1"/>
    <rect x="59" y="7" width="1" height="1"/>
    <rect x="58" y="8" width="1" height="1"/>
    <rect x="58" y="9" width="1" height="1"/>
    <rect x="57" y="10" width="1" height="1"/>
    <rect x="57" y="11" width="1" height="1"/>
    <rect x="57" y="12" width="3" height="1"/>

    <!-- o (x=62) -->
    <rect x="64" y="6" width="3" height="1"/>
    <rect x="63" y="7" width="1" height="1"/>
    <rect x="66" y="7" width="1" height="1"/>
    <rect x="63" y="8" width="1" height="1"/>
    <rect x="66" y="8" width="1" height="1"/>
    <rect x="62" y="9" width="1" height="1"/>
    <rect x="65" y="9" width="1" height="1"/>
    <rect x="62" y="10" width="1" height="1"/>
    <rect x="65" y="10" width="1" height="1"/>
    <rect x="62" y="11" width="1" height="1"/>
    <rect x="65" y="11" width="1" height="1"/>
    <rect x="62" y="12" width="4" height="1"/>

    <!-- c (x=69) -->
    <rect x="71" y="6" width="3" height="1"/>
    <rect x="70" y="7" width="1" height="1"/>
    <rect x="70" y="8" width="1" height="1"/>
    <rect x="69" y="9" width="1" height="1"/>
    <rect x="69" y="10" width="1" height="1"/>
    <rect x="69" y="11" width="1" height="1"/>
    <rect x="69" y="12" width="4" height="1"/>

    <!-- i (x=75) -->
    <rect x="77" y="6" width="1" height="1"/>
    <rect x="76" y="8" width="1" height="1"/>
    <rect x="76" y="9" width="1" height="1"/>
    <rect x="75" y="10" width="1" height="1"/>
    <rect x="75" y="11" width="1" height="1"/>
    <rect x="75" y="12" width="1" height="1"/>

    <!-- t (x=79) -->
    <rect x="81" y="6" width="1" height="1"/>
    <rect x="80" y="7" width="3" height="1"/>
    <rect x="80" y="8" width="1" height="1"/>
    <rect x="79" y="9" width="1" height="1"/>
    <rect x="79" y="10" width="1" height="1"/>
    <rect x="79" y="11" width="1" height="1"/>
    <rect x="79" y="12" width="3" height="1"/>

    <!-- y (x=84) -->
    <rect x="86" y="6" width="1" height="1"/>
    <rect x="89" y="6" width="1" height="1"/>
    <rect x="85" y="7" width="1" height="1"/>
    <rect x="89" y="7" width="1" height="1"/>
    <rect x="85" y="8" width="1" height="1"/>
    <rect x="88" y="8" width="1" height="1"/>
    <rect x="84" y="9" width="1" height="1"/>
    <rect x="88" y="9" width="1" height="1"/>
    <rect x="84" y="10" width="5" height="1"/>
    <rect x="87" y="11" width="1" height="1"/>
    <rect x="84" y="12" width="4" height="1"/>
  </g>
</svg>
