<svg xmlns="http://www.w3.org/2000/svg" viewBox="0 0 134 26" shape-rendering="crispEdges">
  <g fill="#22C55E">
    <!-- === TORTOISE === -->
    <!-- Shell dome -->
    <rect x="10" y="0" width="12" height="2"/>
    <rect x="8" y="2" width="16" height="2"/>
    <rect x="6" y="4" width="20" height="2"/>
    <rect x="6" y="6" width="20" height="2"/>
    <rect x="6" y="8" width="20" height="2"/>
    <rect x="6" y="10" width="20" height="2"/>
    <rect x="8" y="12" width="16" height="2"/>
    <!-- Shell scutes -->
    <rect x="12" y="4" width="2" height="2" fill="white"/>
    <rect x="18" y="4" width="2" height="2" fill="white"/>
    <rect x="10" y="8" width="2" height="2" fill="white"/>
    <rect x="16" y="8" width="2" height="2" fill="white"/>
    <rect x="22" y="8" width="2" height="2" fill="white"/>
    <rect x="14" y="12" width="2" height="2" fill="white"/>
    <rect x="20" y="12" width="2" height="2" fill="white"/>
    <!-- Body -->
    <rect x="8" y="14" width="18" height="2"/>
    <!-- Neck (filled, no gaps) -->
    <rect x="26" y="4" width="4" height="4"/>
    <!-- Head -->
    <rect x="30" y="2" width="6" height="2"/>
    <rect x="30" y="4" width="8" height="2"/>
    <rect x="30" y="6" width="8" height="2"/>
    <rect x="30" y="8" width="6" height="2"/>
    <!-- Eye -->
    <rect x="34" y="4" width="2" height="2" fill="white"/>
    <!-- Leg stubs -->
    <rect x="22" y="16" width="4" height="6"/>
    <rect x="10" y="16" width="4" height="6"/>
    <!-- Tail -->
    <rect x="4" y="10" width="4" height="2"/>
    <rect x="2" y="8" width="4" height="2"/>

    <!-- === VELOCITY pixel italic text === -->
    <!-- v -->
    <rect x="48" y="6" width="1" height="1"/>
    <rect x="52" y="6" width="1" height="1"/>
    <rect x="48" y="7" width="1" height="1"/>
    <rect x="52" y="7" width="1" height="1"/>
    <rect x="47" y="8" width="1" height="1"/>
    <rect x="51" y="8" width="1" height="1"/>
    <rect x="47" y="9" width="1" height="1"/>
    <rect x="51" y="9" width="1" height="1"/>
    <rect x="47" y="10" width="1" height="1"/>
    <rect x="51" y="10" width="1" height="1"/>
    <rect x="46" y="11" width="2" height="1"/>
    <rect x="49" y="11" width="2" height="1"/>
    <rect x="47" y="12" width="3" height="1"/>
    <!-- e -->
    <rect x="56" y="6" width="3" height="1"/>
    <rect x="55" y="7" width="1" height="1"/>
    <rect x="58" y="7" width="1" height="1"/>
    <rect x="55" y="8" width="1" height="1"/>
    <rect x="58" y="8" width="1" height="1"/>
    <rect x="54" y="9" width="5" height="1"/>
    <rect x="54" y="10" width="1" height="1"/>
    <rect x="54" y="11" width="1" height="1"/>
    <rect x="57" y="11" width="1" height="1"/>
    <rect x="54" y="12" width="4" height="1"/>
    <!-- l -->
    <rect x="63" y="6" width="1" height="1"/>
    <rect x="63" y="7" width="1" height="1"/>
    <rect x="62" y="8" width="1" height="1"/>
    <rect x="62" y="9" width="1" height="1"/>
    <rect x="61" y="10" width="1" height="1"/>
    <rect x="61" y="11" width="1" height="1"/>
    <rect x="61" y="12" width="3" height="1"/>
    <!-- o -->
    <rect x="68" y="6" width="3" height="1"/>
    <rect x="67" y="7" width="1" height="1"/>
    <rect x="70" y="7" width="1" height="1"/>
    <rect x="67" y="8" width="1" height="1"/>
    <rect x="70" y="8" width="1" height="1"/>
    <rect x="66" y="9" width="1" height="1"/>
    <rect x="69" y="9" width="1" height="1"/>
    <rect x="66" y="10" width="1" height="1"/>
    <rect x="69" y="10" width="1" height="1"/>
    <rect x="66" y="11" width="1" height="1"/>
    <rect x="69" y="11" width="1" height="1"/>
    <rect x="66" y="12" width="4" height="1"/>
    <!-- c -->
    <rect x="75" y="6" width="3" height="1"/>
    <rect x="74" y="7" width="1" height="1"/>
    <rect x="74" y="8" width="1" height="1"/>
    <rect x="73" y="9" width="1" height="1"/>
    <rect x="73" y="10" width="1" height="1"/>
    <rect x="73" y="11" width="1" height="1"/>
    <rect x="73" y="12" width="4" height="1"/>
    <!-- i -->
    <rect x="81" y="6" width="1" height="1"/>
    <rect x="80" y="8" width="1" height="1"/>
    <rect x="80" y="9" width="1" height="1"/>
    <rect x="79" y="10" width="1" height="1"/>
    <rect x="79" y="11" width="1" height="1"/>
    <rect x="79" y="12" width="1" height="1"/>
    <!-- t -->
    <rect x="85" y="6" width="1" height="1"/>
    <rect x="84" y="7" width="3" height="1"/>
    <rect x="84" y="8" width="1" height="1"/>
    <rect x="83" y="9" width="1" height="1"/>
    <rect x="83" y="10" width="1" height="1"/>
    <rect x="83" y="11" width="1" height="1"/>
    <rect x="83" y="12" width="3" height="1"/>
    <!-- y -->
    <rect x="90" y="6" width="1" height="1"/>
    <rect x="93" y="6" width="1" height="1"/>
    <rect x="89" y="7" width="1" height="1"/>
    <rect x="93" y="7" width="1" height="1"/>
    <rect x="89" y="8" width="1" height="1"/>
    <rect x="92" y="8" width="1" height="1"/>
    <rect x="88" y="9" width="1" height="1"/>
    <rect x="92" y="9" width="1" height="1"/>
    <rect x="88" y="10" width="5" height="1"/>
    <rect x="91" y="11" width="1" height="1"/>
    <rect x="88" y="12" width="4" height="1"/>
  </g>
</svg>
