<svg xmlns="http://www.w3.org/2000/svg" viewBox="0 0 1200 630" shape-rendering="crispEdges">
  <!-- OG image: white background, centered Shelly + velocity lockup -->
  <rect width="1200" height="630" fill="white"/>

  <!-- Shelly tortoise (scaled 6x, centered) -->
  <g fill="#22C55E" transform="translate(280, 140) scale(6)">
    <!-- Shell dome -->
    <rect x="10" y="0" width="12" height="2"/>
    <rect x="8" y="2" width="16" height="2"/>
    <rect x="6" y="4" width="20" height="2"/>
    <rect x="6" y="6" width="20" height="2"/>
    <rect x="6" y="8" width="20" height="2"/>
    <rect x="6" y="10" width="20" height="2"/>
    <!-- Scutes -->
    <rect x="12" y="4" width="2" height="2" fill="white"/>
    <rect x="18" y="4" width="2" height="2" fill="white"/>
    <rect x="10" y="8" width="2" height="2" fill="white"/>
    <rect x="16" y="8" width="2" height="2" fill="white"/>
    <rect x="22" y="8" width="2" height="2" fill="white"/>
    <!-- Body -->
    <rect x="8" y="12" width="18" height="2"/>
    <!-- Neck -->
    <rect x="26" y="6" width="2" height="2"/>
    <rect x="26" y="8" width="2" height="2"/>
    <rect x="28" y="4" width="2" height="2"/>
    <rect x="28" y="6" width="2" height="2"/>
    <!-- Head -->
    <rect x="30" y="2" width="6" height="2"/>
    <rect x="30" y="4" width="8" height="2"/>
    <rect x="30" y="6" width="8" height="2"/>
    <rect x="30" y="8" width="6" height="2"/>
    <!-- Eye -->
    <rect x="34" y="4" width="2" height="2" fill="white"/>
    <!-- Legs -->
    <rect x="20" y="14" width="4" height="6"/>
    <rect x="8" y="14" width="4" height="6"/>
    <!-- Tail -->
    <rect x="4" y="10" width="4" height="2"/>
    <rect x="2" y="8" width="4" height="2"/>
  </g>

  <!-- Tagline -->
  <text x="600" y="520" text-anchor="middle" font-family="system-ui, sans-serif" font-size="36" fill="#666">
    Measure what matters.
  </text>
</svg>
